<?xml version="1.0" encoding="utf-8"?>
<!-- Generator: Adobe Illustrator 26.0.1, SVG Export Plug-In . SVG Version: 6.00 Build 0)  -->
<svg version="1.1" id="Layer_1" xmlns="http://www.w3.org/2000/svg" xmlns:xlink="http://www.w3.org/1999/xlink" x="0px" y="0px"
	 viewBox="0 0 360 360" style="enable-background:new 0 0 360 360;" xml:space="preserve">
<style type="text/css">
	.st0{fill:#121211;}
	.st1{fill:#FFFFFF;}
</style>
<rect x="-2.3" class="st0" width="362.3" height="362.3"/>
<g>
	<path class="st1" d="M154.4,182.6c-0.2-3-0.5-6-0.6-9c0-0.9-0.3-1.3-1.3-1.5c-1.1-0.2-2.2-0.5-3.2-0.9c-0.6-0.2-1-0.1-1.4,0.4
		c-1.6,2.1-3.2,4.1-4.9,6.2c-0.2,0.2-0.4,0.4-0.6,0.7c-1.7-1-3.4-1.9-5-2.9c-1.7-1-3.4-1.9-5.1-2.9c0.8-1.9,1.6-3.7,2.4-5.5
		c0.4-1,0.9-2.1,1.3-3.2c0.1-0.2,0-0.6-0.1-0.8c-1.1-1.2-2.2-2.3-3.3-3.4c-0.2-0.2-0.7-0.1-0.9,0c-2.8,1.2-5.5,2.4-8.3,3.6
		c-2.1-3.4-4.1-6.8-6.2-10.2c2.6-2,5.2-4,7.9-6c-0.5-1.5-0.9-3.1-1.4-4.6c-0.1-0.2-0.5-0.5-0.8-0.5c-2.7-0.4-5.4-0.7-8.2-1
		c-0.3,0-0.7-0.1-1-0.2c0-4,0-7.9,0-11.8c2.9-0.4,5.8-0.7,8.6-1.1c0.9-0.1,1.5-0.3,1.7-1.4c0.2-1.3,0.7-2.5,1.1-3.8
		c-2.6-1.9-5.1-3.8-7.8-5.7c2-3.4,3.9-6.7,5.9-10.2c2.3,0.9,4.5,1.6,6.6,2.7c1.9,1,3.2,1,4.7-0.8c1.5-1.8,1.7-1.7,0.8-3.9
		c-0.9-2.2-1.8-4.4-2.8-6.7c3.4-1.9,6.6-3.8,10-5.7c1.3,1.7,2.7,3.4,4,5.1c0.5,0.7,1.1,1.4,1.6,2.1c0.3,0.4,0.5,0.5,1,0.3
		c1.2-0.4,2.5-0.7,3.7-1c0.6-0.1,0.8-0.4,0.8-1c0.2-2.7,0.4-5.3,0.6-8c0-0.3,0-0.6,0.1-1c0.2,0,0.4-0.1,0.7-0.1
		c12.6,0,25.2,0,37.7,0c0.7,0,1.2,0.2,1.7,0.7c3.4,3.3,6.7,6.6,10.1,9.9c0.2,0.2,0.7,0.4,1,0.4c6.9,0,13.9,0,20.8,0
		c0.6,0,0.8-0.2,1-0.7c0.9-2.3,3.2-3.6,5.6-3.3c2.4,0.3,4.3,2.1,4.7,4.4c0.4,2.4-0.9,4.7-3.1,5.7c-2.5,1.1-5.4,0.2-6.8-2.2
		c-0.3-0.5-0.6-0.7-1.2-0.7c-7.2,0-14.5,0-21.7,0c-0.8,0-1.4-0.2-1.9-0.8c-3.3-3.2-6.6-6.4-9.9-9.6c-0.3-0.3-0.8-0.6-1.3-0.6
		c-9.6,0-19.3,0-28.9,0c-0.3,0-0.6,0-1,0c0,2.1,0,4.2,0,6.4c0.4,0,0.8,0,1.1,0c6.8,0,13.6,0,20.3,0c0.7,0,1.2,0.2,1.7,0.7
		c3.6,3.5,7.2,7.1,10.8,10.6c0.3,0.3,0.8,0.5,1.2,0.5c16.3,0,32.6,0,48.9,0.1c0.6,0,0.8-0.2,1-0.7c1-2.1,2.9-3.2,5.2-3
		c2.2,0.2,4,1.5,4.7,3.7c0.7,2.1,0,4.3-1.7,5.7c-2.6,2.1-6.6,1.3-8.1-1.7c-0.3-0.6-0.6-0.7-1.3-0.7c-16.6,0-33.2,0-49.8,0
		c-0.8,0-1.3-0.2-1.9-0.8c-3.3-3.3-6.7-6.6-10-9.9c-0.7-0.7-1.4-1.1-2.5-1c-6.3,0.1-12.5,0-18.8,0.1c-0.3,0-0.7,0-1.1,0
		c0,2.3,0,4.4,0,6.8c1.9,0,3.7,0,5.5,0c2.2,0,4.4,0,6.6,0c0.5,0,1.1,0.3,1.4,0.6c3.6,3.4,7.1,6.9,10.6,10.3c0.2,0.2,0.5,0.4,0.7,0.4
		c7.2,0,14.4,0,21.7,0c0.8-2.2,2.3-3.4,4.6-3.7c2.6-0.3,5.1,1.4,5.8,3.9c0.6,2.4-0.6,5.1-2.7,6.1c-2.6,1.2-5.5,0.5-6.9-1.9
		c-0.6-1-1.2-1.2-2.2-1.2c-7,0-14.1,0-21.1,0c-0.7,0-1.1-0.2-1.6-0.7c-3.3-3.3-6.7-6.5-10-9.8c-0.5-0.5-0.9-0.6-1.6-0.7
		c-3.6-0.1-7.2-0.2-10.8-0.5c-7.7-0.6-14,2-19.2,7.5c-3.9,4.2-6.1,9.2-6.2,15c-0.1,6.8,2.3,12.6,7.1,17.4c3.7,3.6,8,5.8,13.1,6.5
		c1.8,0.2,3.6,0.2,5.3,0.2c3.5,0,7-0.1,10.4-0.3c0.5,0,1-0.2,1.4-0.5c3.8-3.7,7.6-7.4,11.3-11.1c0.5-0.5,1-0.7,1.6-0.6
		c7,0,13.9,0,20.9,0c0.6,0,0.9-0.1,1.2-0.7c1-2.2,3.6-3.4,6-2.8c2.5,0.6,4.1,2.8,4.1,5.4c-0.1,2.5-2,4.6-4.4,5
		c-2.5,0.4-4.6-0.7-5.7-2.9c-0.2-0.5-0.5-0.6-1-0.6c-6.7,0-13.3,0-20,0c-0.4,0-0.9,0.2-1.2,0.5c-3.8,3.7-7.5,7.3-11.2,11
		c-0.5,0.5-1,0.7-1.7,0.7c-3.6,0-7.2,0-10.8,0.1c-0.3,0-0.6,0-1,0c0,2.4,0,4.7,0,7c0.3,0,0.6,0,0.9,0c6.5,0,13.1,0,19.6,0
		c0.4,0,1-0.2,1.3-0.5c3.7-3.7,7.5-7.4,11.2-11.1c0.5-0.5,1.1-0.8,1.9-0.8c16.4,0,32.9,0,49.3,0c0.6,0,0.9-0.1,1.2-0.7
		c1-2.3,3.4-3.4,5.9-2.9c2.4,0.5,4.1,2.4,4.3,4.8c0.2,2.4-1.3,4.6-3.5,5.4c-2.4,0.8-5-0.1-6.3-2.2c-0.5-0.9-1.1-1.1-2-1.1
		c-15.8,0-31.6,0-47.4,0c-0.7,0-1.2,0.2-1.6,0.6c-3.7,3.7-7.4,7.4-11.1,11.1c-0.5,0.5-0.9,0.6-1.5,0.6c-6.9,0-13.8,0-20.7,0
		c-0.4,0-0.8,0-1.3,0c0,2.3,0,4.6,0,6.9c0.3,0,0.7,0,1.1,0c9.4,0,18.7,0,28.1-0.1c0.5,0,1.1-0.3,1.5-0.6c3.7-3.6,7.3-7.2,10.9-10.8
		c0.6-0.6,1.1-0.8,1.9-0.8c7,0.1,14,0.1,21,0.1c0.7,0,1.1-0.2,1.4-0.8c1.1-2.2,3.5-3.3,5.8-2.7c2.5,0.6,4.2,2.7,4.2,5.2
		c0,2.3-1.6,4.5-3.9,5.1c-2.3,0.7-4.8-0.3-6-2.5c-0.4-0.8-0.9-1-1.8-1c-6.5,0-13.1,0-19.6,0.1c-0.5,0-1,0.3-1.3,0.6
		c-3.7,3.6-7.4,7.3-11.2,11c-0.4,0.4-1,0.7-1.5,0.7c-12.3,0-24.7,0-37,0C155.1,182.6,154.8,182.6,154.4,182.6z M234.6,101.5
		c0-1.1-1-2.1-2.1-2.1c-1.1,0-2.2,0.9-2.2,2c0,1.1,1,2.2,2.1,2.3C233.5,103.7,234.5,102.6,234.6,101.5z M251.9,160.4
		c1.1,0,2.2-1,2.1-2.1c0-1.1-1.1-2.2-2.2-2.2c-1.1,0-2.1,0.9-2.1,2C249.8,159.3,250.7,160.4,251.9,160.4z M211.3,122
		c0,1.2,1,2.2,2.2,2.2c1.1,0,2.1-1.1,2.1-2.2c0-1.1-1-2.1-2.1-2.1C212.2,119.9,211.3,120.9,211.3,122z M213.3,145.8
		c-1.1,0-2.1,1-2.1,2.1c0,1.1,1.1,2.1,2.1,2.1c1.1,0,2.1-1.1,2.1-2.1C215.5,146.8,214.6,145.8,213.3,145.8z M232.2,170.9
		c1.2,0.1,2.2-0.8,2.3-1.9c0.1-1.2-0.9-2.3-2.1-2.3c-1.1,0-2.1,0.9-2.1,2C230.2,169.8,231.1,170.8,232.2,170.9z M253.8,112.3
		c0-1.2-1-2.1-2.1-2.1c-1.1,0-2.1,1-2.1,2.1c0,1.1,1,2.1,2.1,2.1C252.8,114.5,253.8,113.5,253.8,112.3z"/>
	<path class="st1" d="M172.9,133.6c0.6,0,1.1,0,1.7,0c20.7,0,41.5,0,62.2,0c0.6,0,0.8-0.1,1.1-0.7c1.1-2.4,3.7-3.5,6.3-2.8
		c2.6,0.8,4.1,3.3,3.8,5.9c-0.3,2.5-2.7,4.5-5.2,4.5c-2.1,0-3.8-0.9-4.7-2.8c-0.3-0.5-0.5-0.6-1.1-0.6c-21.1,0-42.2,0-63.3,0
		c-0.7,0-0.9,0.2-1.1,0.9c-1.4,6.2-6.9,10.3-13.2,9.9c-6.6-0.4-11.8-5.3-12.2-11.7c-0.4-5.3,1.8-9.5,6.4-12.2
		c4.6-2.7,9.3-2.4,13.7,0.5c2.9,1.9,4.7,4.7,5.4,8.2C172.7,133.1,172.8,133.3,172.9,133.6z M164.6,135.3c0.1-2.5-1.8-4.5-4.3-4.6
		c-2.5-0.1-4.6,1.9-4.7,4.3c-0.1,2.4,2.1,4.7,4.5,4.7C162.5,139.8,164.5,137.8,164.6,135.3z M240.6,135.3c0,1.2,0.9,2.2,2,2.2
		c1.1,0,2.1-0.9,2.2-2.1c0-1.1-1-2.1-2.1-2.1C241.6,133.2,240.6,134.2,240.6,135.3z"/>
</g>
<g>
	<path class="st1" d="M67.4,199h12.4v34.4H67.4V199z"/>
	<path class="st1" d="M122.1,211.2c1.4,0,2.7,0.2,4,0.6s2.4,1,3.4,1.7s1.8,1.6,2.3,2.6c0.6,1,0.9,2.2,0.9,3.5v5.3
		c0,1.3-0.3,2.5-0.9,3.5c-0.6,1-1.4,1.9-2.3,2.6s-2.1,1.3-3.4,1.7s-2.6,0.6-4,0.6H83.8v-10h35.5c0.4-0.1,0.7-0.2,0.8-0.5
		c0.1-0.2,0.2-0.5,0.2-0.7c0-0.5-0.3-0.9-1-1H94.4c-1.4,0-2.7-0.2-4-0.6s-2.4-1-3.4-1.7s-1.8-1.6-2.3-2.6c-0.6-1-0.9-2.2-0.9-3.5
		v-5.3c0-1.3,0.3-2.5,0.9-3.5c0.6-1,1.4-1.9,2.3-2.6s2.1-1.3,3.4-1.7s2.6-0.6,4-0.6h38.3v10H97.2c-0.4,0.1-0.7,0.2-0.8,0.4
		c-0.1,0.2-0.2,0.4-0.3,0.7c0,0.6,0.4,1,1.1,1.1H122.1z"/>
	<path class="st1" d="M186.9,233.4h-12.4v-12.1H149v12.1h-12.3V199H149v12.2h25.5V199h12.4V233.4z"/>
	<path class="st1" d="M191.8,203.9c0.6-1,1.4-1.9,2.3-2.6s2.1-1.3,3.4-1.7s2.6-0.6,4-0.6h30.2c1.4,0,2.7,0.2,4,0.6s2.4,1,3.4,1.7
		s1.8,1.6,2.3,2.6c0.6,1,0.9,2.2,0.9,3.5v17.5c0,1.3-0.3,2.5-0.9,3.5c-0.6,1-1.4,1.9-2.3,2.6s-2.1,1.3-3.4,1.7s-2.6,0.6-4,0.6h-30.2
		c-1.4,0-2.7-0.2-4-0.6s-2.4-1-3.4-1.7s-1.8-1.6-2.3-2.6c-0.6-1-0.9-2.2-0.9-3.5v-17.5C190.9,206.1,191.2,205,191.8,203.9z
		 M204,209.5c-0.4,0.3-0.7,0.6-0.8,0.8v11.5c0,0.3,0.2,0.6,0.7,0.9c0.5,0.3,0.9,0.5,1.4,0.6h22.6c0.5-0.1,1-0.3,1.4-0.6
		c0.4-0.3,0.7-0.6,0.7-0.9v-11.5c-0.1-0.3-0.3-0.6-0.7-0.8c-0.4-0.3-0.8-0.5-1.3-0.5h-22.6C204.9,209.1,204.4,209.2,204,209.5z"/>
	<path class="st1" d="M246.3,199h39.6c1.4,0,2.7,0.2,4,0.6c1.3,0.4,2.4,1,3.4,1.7c1,0.7,1.8,1.6,2.3,2.6c0.6,1,0.9,2.2,0.9,3.5v7.9
		c0,1.3-0.3,2.5-0.9,3.5c-0.6,1-1.4,1.9-2.3,2.6c-1,0.7-2.1,1.3-3.4,1.7c-1.3,0.4-2.6,0.6-4,0.6h-27.3v9.7h-12.3V199z M258.6,209
		v4.7h23.5c0.5-0.1,1-0.3,1.4-0.6c0.4-0.3,0.7-0.6,0.7-0.9v-1.8c-0.1-0.3-0.3-0.6-0.7-0.8c-0.4-0.3-0.8-0.5-1.3-0.5H258.6z"/>
</g>
<g>
	<path class="st1" d="M70.3,254.6h-0.1c-0.5,0-1,0-1.4-0.1c-0.4-0.1-0.8-0.2-1.2-0.4c-0.4-0.2-0.7-0.4-1-0.8s-0.4-0.8-0.5-1.3h1
		c0.3,1.2,1.4,1.8,3.3,1.8c1.1,0,1.9-0.2,2.4-0.5c0.5-0.3,0.8-0.9,0.8-1.7v-0.1c0-0.7-0.2-1.2-0.5-1.5c-0.4-0.3-1-0.5-2.1-0.5
		l-1.6-0.1c-1.1-0.1-1.9-0.3-2.3-0.8s-0.7-1.1-0.7-1.9v-0.1c0-1,0.3-1.7,1-2.2c0.6-0.4,1.6-0.7,2.8-0.7h0.2c2.5,0,3.8,0.9,4,2.6h-1
		c-0.1-0.7-0.5-1.2-1-1.5c-0.5-0.2-1.2-0.4-2.1-0.4c-1,0-1.7,0.2-2.2,0.5s-0.7,0.8-0.7,1.5v0.1c0,0.7,0.2,1.2,0.5,1.5
		c0.4,0.3,1,0.5,2.1,0.5l1.6,0.1c1.1,0.1,1.9,0.3,2.3,0.8c0.4,0.4,0.7,1.1,0.7,1.9v0.2c0,1.1-0.4,1.9-1.1,2.4
		C72.6,254.3,71.6,254.6,70.3,254.6z"/>
	<path class="st1" d="M88,249.2v5.2h-0.9v-5c0-0.9-0.2-1.5-0.5-1.9c-0.4-0.3-0.9-0.5-1.6-0.5c-1.6,0-2.4,0.9-2.4,2.6v4.7h-0.9v-5
		c0-0.9-0.2-1.5-0.5-1.9c-0.3-0.3-0.9-0.5-1.6-0.5c-1.6,0-2.4,0.9-2.4,2.6v4.7h-0.9v-7.9h0.9v1.2h0.1c0.4-0.9,1.2-1.3,2.4-1.3
		c1.4,0,2.3,0.5,2.7,1.5h0.1c0.4-1,1.3-1.5,2.6-1.5c0.9,0,1.7,0.2,2.2,0.7C87.8,247.4,88,248.2,88,249.2z"/>
	<path class="st1" d="M96.5,249.2v5.2h-0.9v-1.2h-0.1c-0.5,0.9-1.4,1.3-2.8,1.3c-0.9,0-1.7-0.2-2.2-0.6c-0.5-0.4-0.8-1-0.8-1.8v-0.1
		c0-0.7,0.2-1.3,0.7-1.7c0.4-0.4,1.1-0.6,2.1-0.7l3.2-0.2v-0.3c0-0.9-0.2-1.5-0.6-1.8c-0.4-0.3-1-0.4-1.8-0.4
		c-0.7,0-1.2,0.1-1.6,0.4s-0.6,0.7-0.7,1.2H90c0.3-1.6,1.3-2.3,3.1-2.3h0.2c1.1,0,1.9,0.2,2.4,0.6C96.2,247.4,96.5,248.1,96.5,249.2
		z M90.6,252.1L90.6,252.1c0,0.6,0.2,1.1,0.6,1.4c0.4,0.3,0.9,0.4,1.6,0.4c0.9,0,1.6-0.2,2.1-0.6c0.5-0.4,0.7-1,0.7-1.8v-1.2
		l-3.1,0.2c-0.6,0-1.1,0.2-1.4,0.5S90.6,251.6,90.6,252.1z"/>
	<path class="st1" d="M102,246.5h0.7v0.8H102c-0.8,0-1.5,0.2-1.9,0.5c-0.4,0.3-0.6,1-0.6,1.9v4.7h-0.9v-7.9h0.9v1.2h0.1
		C99.8,246.9,100.6,246.5,102,246.5z"/>
	<path class="st1" d="M108.3,253.7v0.7h-1c-0.8,0-1.4-0.2-1.8-0.5c-0.3-0.3-0.5-0.9-0.5-1.8v-4.9h-1.9v-0.7h1.9v-2.5h0.9v2.5h2.4
		v0.7H106v4.7c0,0.8,0.1,1.3,0.4,1.5c0.2,0.2,0.7,0.3,1.4,0.3H108.3z"/>
	<path class="st1" d="M114.8,249.7v4.7h-1v-10.5h5.3c1.1,0,2,0.2,2.5,0.6c0.5,0.4,0.8,1.1,0.8,2.1v0.2c0,0.8-0.1,1.3-0.4,1.7
		c-0.2,0.4-0.6,0.6-1.2,0.7v0.1c0.6,0.1,1,0.3,1.2,0.6c0.2,0.3,0.3,0.9,0.3,1.7v2.8h-1v-2.5c0-0.9-0.1-1.5-0.4-1.8s-0.9-0.4-1.8-0.4
		H114.8z M118.9,244.7h-4.1v4.2h4.3c0.9,0,1.5-0.2,1.8-0.5s0.4-0.9,0.4-1.6v-0.1c0-0.8-0.2-1.3-0.5-1.6
		C120.5,244.8,119.8,244.7,118.9,244.7z"/>
	<path class="st1" d="M130.3,252.3h0.9c-0.2,0.8-0.6,1.4-1.2,1.7c-0.5,0.3-1.3,0.5-2.2,0.5h-0.1c-1.1,0-2-0.3-2.6-0.9
		c-0.6-0.6-0.9-1.6-0.9-3v-0.6c0-1.4,0.3-2.4,0.9-3c0.6-0.6,1.4-0.9,2.6-0.9h0.1c1.1,0,2,0.3,2.6,0.8c0.6,0.6,0.9,1.5,0.9,2.9v0.5
		h-6.1c0,0.7,0.1,1.3,0.2,1.7c0.1,0.5,0.3,0.8,0.6,1s0.5,0.3,0.8,0.4c0.3,0.1,0.6,0.1,1,0.1s0.7,0,1-0.1c0.3,0,0.5-0.2,0.8-0.4
		C129.9,253.1,130.1,252.8,130.3,252.3z M127.8,247c-0.4,0-0.7,0-1,0.1c-0.3,0.1-0.5,0.2-0.8,0.4c-0.3,0.2-0.5,0.5-0.6,0.9
		s-0.2,0.9-0.2,1.5h5.1v-0.1c0-1-0.2-1.7-0.6-2.1C129.3,247.2,128.7,247,127.8,247z"/>
	<path class="st1" d="M133.2,257v-10.5h0.9v1.2h0.1c0.3-0.9,1.2-1.3,2.6-1.3h0.1c1.1,0,2,0.3,2.6,0.8s0.9,1.5,0.9,2.9v0.7
		c0,1.4-0.3,2.4-0.9,2.9c-0.6,0.6-1.5,0.8-2.6,0.8h-0.1c-1.4,0-2.3-0.4-2.6-1.3h-0.1v3.7H133.2z M136.8,247.1c-0.3,0-0.6,0-0.8,0.1
		s-0.5,0.1-0.7,0.2s-0.4,0.3-0.6,0.5c-0.1,0.2-0.3,0.5-0.4,0.9s-0.1,0.9-0.1,1.5v0.3c0,0.7,0.1,1.3,0.2,1.7c0.1,0.4,0.3,0.8,0.6,1
		c0.3,0.2,0.5,0.3,0.8,0.4c0.3,0.1,0.6,0.1,1,0.1c0.4,0,0.8,0,1-0.1c0.3-0.1,0.6-0.2,0.8-0.4c0.3-0.2,0.5-0.5,0.6-1s0.2-1,0.2-1.7
		v-0.3c0-0.7-0.1-1.3-0.2-1.7s-0.3-0.8-0.6-1c-0.3-0.2-0.5-0.3-0.8-0.4C137.6,247.1,137.2,247.1,136.8,247.1z"/>
	<path class="st1" d="M148.7,249.2v5.2h-0.9v-1.2h-0.1c-0.5,0.9-1.4,1.3-2.8,1.3c-0.9,0-1.7-0.2-2.2-0.6c-0.5-0.4-0.8-1-0.8-1.8
		v-0.1c0-0.7,0.2-1.3,0.7-1.7c0.4-0.4,1.1-0.6,2.1-0.7l3.2-0.2v-0.3c0-0.9-0.2-1.5-0.6-1.8c-0.4-0.3-1-0.4-1.8-0.4
		c-0.7,0-1.2,0.1-1.6,0.4s-0.6,0.7-0.7,1.2h-0.9c0.3-1.6,1.3-2.3,3.1-2.3h0.2c1.1,0,1.9,0.2,2.4,0.6
		C148.4,247.4,148.7,248.1,148.7,249.2z M142.8,252.1L142.8,252.1c0,0.6,0.2,1.1,0.6,1.4c0.4,0.3,0.9,0.4,1.6,0.4
		c0.9,0,1.6-0.2,2.1-0.6c0.5-0.4,0.7-1,0.7-1.8v-1.2l-3.1,0.2c-0.6,0-1.1,0.2-1.4,0.5S142.8,251.6,142.8,252.1z"/>
	<path class="st1" d="M150.7,243.9h0.9v1h-0.9V243.9z M150.7,246.5h0.9v7.9h-0.9V246.5z"/>
	<path class="st1" d="M157.3,246.5h0.7v0.8h-0.7c-0.8,0-1.5,0.2-1.9,0.5c-0.4,0.3-0.6,1-0.6,1.9v4.7h-0.9v-7.9h0.9v1.2h0.1
		C155.1,246.9,155.9,246.5,157.3,246.5z"/>
	<path class="st1" d="M162.3,254.6h-0.1c-2,0-3.1-0.7-3.3-2.1h0.9c0.1,0.3,0.2,0.6,0.5,0.9c0.3,0.2,0.6,0.4,0.9,0.4
		c0.3,0.1,0.7,0.1,1.1,0.1c0.8,0,1.4-0.1,1.8-0.4c0.4-0.2,0.6-0.7,0.6-1.3v-0.1c0-0.5-0.1-0.8-0.4-1c-0.2-0.2-0.7-0.3-1.4-0.4
		l-1.6-0.1c-0.8-0.1-1.4-0.3-1.8-0.6c-0.3-0.3-0.5-0.8-0.5-1.4v-0.2c0-0.7,0.3-1.3,0.8-1.7c0.5-0.4,1.3-0.6,2.2-0.6h0.1
		c0.9,0,1.6,0.2,2.1,0.5s0.9,0.9,1.1,1.6h-0.9c-0.2-0.5-0.5-0.9-0.8-1.1c-0.4-0.2-0.9-0.3-1.5-0.3c-1.5,0-2.2,0.5-2.2,1.5v0.1
		c0,0.5,0.1,0.8,0.4,1c0.2,0.2,0.7,0.3,1.4,0.4l1.6,0.1c0.8,0.1,1.4,0.3,1.8,0.6c0.3,0.3,0.5,0.8,0.5,1.4v0.2
		C165.5,253.8,164.4,254.6,162.3,254.6z"/>
	<path class="st1" d="M171.9,247.2H170v-0.7h1.9c0-1,0.2-1.6,0.7-2c0.4-0.4,1.1-0.6,2-0.6h0.9v0.7h-0.8c-0.7,0-1.1,0.1-1.4,0.4
		c-0.3,0.2-0.4,0.7-0.4,1.5h2.7v0.7h-2.7v7.2h-0.9V247.2z"/>
	<path class="st1" d="M179.7,254.6h-0.1c-1.2,0-2.1-0.3-2.6-0.9s-0.9-1.6-0.9-3v-0.6c0-1.4,0.3-2.4,0.9-3c0.6-0.6,1.5-0.9,2.6-0.9
		h0.1c1.2,0,2.1,0.3,2.6,0.9c0.6,0.6,0.9,1.6,0.9,3v0.6c0,1.4-0.3,2.4-0.9,3S180.8,254.6,179.7,254.6z M178.6,253.7
		c0.3,0.1,0.6,0.1,1,0.1c0.4,0,0.8,0,1-0.1c0.3-0.1,0.5-0.2,0.8-0.4c0.3-0.2,0.5-0.5,0.6-1c0.1-0.4,0.2-1,0.2-1.7v-0.3
		c0-0.7-0.1-1.3-0.2-1.7c-0.1-0.4-0.3-0.8-0.6-1c-0.3-0.2-0.5-0.3-0.8-0.4c-0.3-0.1-0.6-0.1-1-0.1c-0.4,0-0.8,0-1,0.1
		c-0.3,0.1-0.6,0.2-0.8,0.4c-0.3,0.2-0.5,0.5-0.6,1c-0.1,0.4-0.2,1-0.2,1.7v0.3c0,0.7,0.1,1.3,0.2,1.7c0.1,0.4,0.3,0.8,0.6,1
		C178,253.5,178.3,253.6,178.6,253.7z"/>
	<path class="st1" d="M188.6,246.5h0.7v0.8h-0.7c-0.8,0-1.5,0.2-1.9,0.5c-0.4,0.3-0.6,1-0.6,1.9v4.7h-0.9v-7.9h0.9v1.2h0.1
		C186.4,246.9,187.3,246.5,188.6,246.5z"/>
	<path class="st1" d="M198.2,254.6h-0.1c-0.5,0-1,0-1.4-0.1s-0.8-0.2-1.2-0.4c-0.4-0.2-0.7-0.4-1-0.8s-0.4-0.8-0.5-1.3h1
		c0.3,1.2,1.4,1.8,3.3,1.8c1.1,0,1.9-0.2,2.4-0.5c0.5-0.3,0.8-0.9,0.8-1.7v-0.1c0-0.7-0.2-1.2-0.5-1.5c-0.4-0.3-1-0.5-2.1-0.5
		l-1.6-0.1c-1.1-0.1-1.9-0.3-2.3-0.8s-0.7-1.1-0.7-1.9v-0.1c0-1,0.3-1.7,1-2.2c0.6-0.4,1.6-0.7,2.8-0.7h0.2c2.5,0,3.8,0.9,4,2.6h-1
		c-0.1-0.7-0.5-1.2-1-1.5c-0.5-0.2-1.2-0.4-2.1-0.4c-1,0-1.7,0.2-2.2,0.5c-0.5,0.3-0.7,0.8-0.7,1.5v0.1c0,0.7,0.2,1.2,0.5,1.5
		c0.4,0.3,1,0.5,2.1,0.5l1.6,0.1c1.1,0.1,1.9,0.3,2.3,0.8s0.7,1.1,0.7,1.9v0.2c0,1.1-0.4,1.9-1.1,2.4
		C200.5,254.3,199.5,254.6,198.2,254.6z"/>
	<path class="st1" d="M215.9,249.2v5.2H215v-5c0-0.9-0.2-1.5-0.5-1.9c-0.4-0.3-0.9-0.5-1.6-0.5c-1.6,0-2.4,0.9-2.4,2.6v4.7h-0.9v-5
		c0-0.9-0.2-1.5-0.5-1.9c-0.3-0.3-0.9-0.5-1.6-0.5c-1.6,0-2.4,0.9-2.4,2.6v4.7h-0.9v-7.9h0.9v1.2h0.1c0.4-0.9,1.2-1.3,2.4-1.3
		c1.4,0,2.3,0.5,2.7,1.5h0.1c0.4-1,1.3-1.5,2.6-1.5c0.9,0,1.7,0.2,2.2,0.7C215.7,247.4,215.9,248.2,215.9,249.2z"/>
	<path class="st1" d="M224.3,249.2v5.2h-0.9v-1.2h-0.1c-0.5,0.9-1.4,1.3-2.8,1.3c-0.9,0-1.7-0.2-2.2-0.6c-0.5-0.4-0.8-1-0.8-1.8
		v-0.1c0-0.7,0.2-1.3,0.7-1.7c0.4-0.4,1.1-0.6,2.1-0.7l3.2-0.2v-0.3c0-0.9-0.2-1.5-0.6-1.8c-0.4-0.3-1-0.4-1.8-0.4
		c-0.7,0-1.2,0.1-1.6,0.4s-0.6,0.7-0.7,1.2h-0.9c0.3-1.6,1.3-2.3,3.1-2.3h0.2c1.1,0,1.9,0.2,2.4,0.6
		C224.1,247.4,224.3,248.1,224.3,249.2z M218.5,252.1L218.5,252.1c0,0.6,0.2,1.1,0.6,1.4c0.4,0.3,0.9,0.4,1.6,0.4
		c0.9,0,1.6-0.2,2.1-0.6s0.7-1,0.7-1.8v-1.2l-3.1,0.2c-0.6,0-1.1,0.2-1.4,0.5C218.6,251.2,218.5,251.6,218.5,252.1z"/>
	<path class="st1" d="M229.9,246.5h0.7v0.8h-0.7c-0.8,0-1.5,0.2-1.9,0.5c-0.4,0.3-0.6,1-0.6,1.9v4.7h-0.9v-7.9h0.9v1.2h0.1
		C227.7,246.9,228.5,246.5,229.9,246.5z"/>
	<path class="st1" d="M236.2,253.7v0.7h-1c-0.8,0-1.4-0.2-1.8-0.5c-0.3-0.3-0.5-0.9-0.5-1.8v-4.9H231v-0.7h1.9v-2.5h0.9v2.5h2.4v0.7
		h-2.4v4.7c0,0.8,0.1,1.3,0.4,1.5c0.2,0.2,0.7,0.3,1.4,0.3H236.2z"/>
	<path class="st1" d="M250.7,248.6v1.2c0,1.5-0.4,2.7-1.1,3.5s-1.8,1.2-3.4,1.2h-4.6v-10.5h4.6c1.5,0,2.6,0.4,3.4,1.2
		C250.3,245.9,250.7,247,250.7,248.6z M246.1,244.7h-3.5v9h3.5c1.3,0,2.3-0.3,2.8-1c0.5-0.7,0.8-1.7,0.8-3.2v-0.6
		c0-1.4-0.3-2.5-0.8-3.2C248.4,245,247.5,244.7,246.1,244.7z"/>
	<path class="st1" d="M258.6,252.3h0.9c-0.2,0.8-0.6,1.4-1.2,1.7c-0.5,0.3-1.3,0.5-2.2,0.5h-0.1c-1.1,0-2-0.3-2.6-0.9
		c-0.6-0.6-0.9-1.6-0.9-3v-0.6c0-1.4,0.3-2.4,0.9-3c0.6-0.6,1.4-0.9,2.6-0.9h0.1c1.1,0,2,0.3,2.6,0.8c0.6,0.6,0.9,1.5,0.9,2.9v0.5
		h-6.1c0,0.7,0.1,1.3,0.2,1.7c0.1,0.5,0.3,0.8,0.6,1s0.5,0.3,0.8,0.4c0.3,0.1,0.6,0.1,1,0.1s0.7,0,1-0.1c0.3,0,0.5-0.2,0.8-0.4
		S258.5,252.8,258.6,252.3z M256.2,247c-0.4,0-0.7,0-1,0.1s-0.5,0.2-0.8,0.4c-0.3,0.2-0.5,0.5-0.6,0.9s-0.2,0.9-0.2,1.5h5.1v-0.1
		c0-1-0.2-1.7-0.6-2.1C257.7,247.2,257,247,256.2,247z"/>
	<path class="st1" d="M268.4,246.5l-3.2,7.9h-1.3l-3.2-7.9h1l2.9,7.2h0.1l2.9-7.2H268.4z"/>
	<path class="st1" d="M269.6,243.9h0.9v1h-0.9V243.9z M269.6,246.5h0.9v7.9h-0.9V246.5z"/>
	<path class="st1" d="M276,254.6h-0.1c-1.1,0-2-0.3-2.5-0.9c-0.6-0.6-0.9-1.6-0.9-2.9v-0.6c0-1.4,0.3-2.4,0.9-2.9
		c0.6-0.6,1.4-0.9,2.5-0.9h0.1c1.7,0,2.8,0.8,3.1,2.3h-0.9c-0.2-0.6-0.4-1-0.8-1.2c-0.4-0.2-0.9-0.3-1.4-0.3c-0.3,0-0.6,0-0.8,0.1
		s-0.4,0.1-0.7,0.2c-0.2,0.1-0.4,0.3-0.6,0.5c-0.1,0.2-0.3,0.5-0.4,0.9c-0.1,0.4-0.1,0.9-0.1,1.5v0.3c0,0.6,0,1.1,0.1,1.5
		c0.1,0.4,0.2,0.7,0.4,0.9c0.1,0.2,0.3,0.4,0.6,0.5c0.2,0.1,0.5,0.2,0.7,0.2s0.5,0.1,0.8,0.1c0.6,0,1.1-0.1,1.4-0.3
		c0.4-0.2,0.7-0.6,0.8-1.2h0.9C278.8,253.8,277.7,254.6,276,254.6z"/>
	<path class="st1" d="M286.6,252.3h0.9c-0.2,0.8-0.6,1.4-1.2,1.7c-0.5,0.3-1.3,0.5-2.2,0.5h-0.1c-1.1,0-2-0.3-2.6-0.9
		c-0.6-0.6-0.9-1.6-0.9-3v-0.6c0-1.4,0.3-2.4,0.9-3c0.6-0.6,1.4-0.9,2.6-0.9h0.1c1.1,0,2,0.3,2.6,0.8c0.6,0.6,0.9,1.5,0.9,2.9v0.5
		h-6.1c0,0.7,0.1,1.3,0.2,1.7c0.1,0.5,0.3,0.8,0.6,1s0.5,0.3,0.8,0.4c0.3,0.1,0.6,0.1,1,0.1s0.7,0,1-0.1c0.3,0,0.5-0.2,0.8-0.4
		S286.4,252.8,286.6,252.3z M284.1,247c-0.4,0-0.7,0-1,0.1s-0.5,0.2-0.8,0.4c-0.3,0.2-0.5,0.5-0.6,0.9s-0.2,0.9-0.2,1.5h5.1v-0.1
		c0-1-0.2-1.7-0.6-2.1C285.6,247.2,285,247,284.1,247z"/>
	<path class="st1" d="M292.5,254.6h-0.1c-2,0-3.1-0.7-3.3-2.1h0.9c0.1,0.3,0.2,0.6,0.5,0.9c0.3,0.2,0.6,0.4,0.9,0.4
		c0.3,0.1,0.7,0.1,1.1,0.1c0.8,0,1.4-0.1,1.8-0.4c0.4-0.2,0.6-0.7,0.6-1.3v-0.1c0-0.5-0.1-0.8-0.4-1c-0.2-0.2-0.7-0.3-1.4-0.4
		l-1.6-0.1c-0.8-0.1-1.4-0.3-1.8-0.6c-0.3-0.3-0.5-0.8-0.5-1.4v-0.2c0-0.7,0.3-1.3,0.8-1.7c0.5-0.4,1.3-0.6,2.2-0.6h0.1
		c0.9,0,1.6,0.2,2.1,0.5s0.9,0.9,1.1,1.6h-0.9c-0.2-0.5-0.5-0.9-0.8-1.1c-0.4-0.2-0.9-0.3-1.5-0.3c-1.5,0-2.2,0.5-2.2,1.5v0.1
		c0,0.5,0.1,0.8,0.4,1s0.7,0.3,1.4,0.4l1.6,0.1c0.8,0.1,1.4,0.3,1.8,0.6c0.3,0.3,0.5,0.8,0.5,1.4v0.2
		C295.8,253.8,294.7,254.6,292.5,254.6z"/>
</g>
<g>
	<g>
		<path class="st1" d="M84.1,174.1c-0.1,0-0.1,0.1-0.2,0.1c-0.9,0.6-1.6,1.4-2.1,2.3c-0.5,1-0.7,2-0.7,3.1c0,0.7,0.2,1.3,0.4,2
			c0.4,1,1.1,1.9,2,2.6c0.3,0.3,0.7,0.5,1.1,0.7c0.1,0,0.1,0.1,0.2,0.1c0,0.1,0,0.1-0.1,0.2c-0.4,1.2-0.9,2.3-1.6,3.4
			c-0.4,0.7-0.9,1.4-1.5,2c-0.3,0.4-0.6,0.7-1,1c-0.4,0.3-0.8,0.5-1.2,0.6c-0.6,0.2-1.1,0.1-1.7,0c-0.3-0.1-0.6-0.2-0.9-0.3
			c-0.2-0.1-0.5-0.2-0.7-0.3c-1.3-0.5-2.6-0.5-3.9-0.1c-0.3,0.1-0.6,0.2-0.8,0.3c-0.3,0.1-0.7,0.3-1.1,0.3c-0.5,0.1-1,0.1-1.5,0
			c-0.3-0.1-0.7-0.3-0.9-0.5c-0.4-0.3-0.7-0.6-1-0.9c-0.4-0.4-0.7-0.9-1.1-1.3c-0.7-1-1.4-2.1-1.9-3.2c-0.6-1.3-1-2.7-1.3-4.1
			c-0.2-1-0.3-2.1-0.2-3.2c0.1-1.2,0.3-2.3,0.8-3.4c0.6-1.3,1.4-2.4,2.6-3.1c0.8-0.5,1.6-0.8,2.6-1c0.9-0.1,1.7-0.1,2.6,0.2
			c0.4,0.1,0.8,0.3,1.3,0.5c0.3,0.1,0.6,0.2,1,0.3c0.4,0.1,0.8,0.1,1.2,0c0.3-0.1,0.7-0.2,1-0.4c0.4-0.2,0.8-0.3,1.2-0.5
			c0.9-0.3,1.8-0.4,2.8-0.3c1,0.1,1.9,0.4,2.8,0.9c0.7,0.4,1.3,1,1.7,1.6C84,173.9,84.1,174,84.1,174.1z"/>
		<path class="st1" d="M79.1,164.6c0.1,0.1,0,0.2,0.1,0.3c0,0.8-0.1,1.5-0.4,2.3c-0.4,1.1-1.1,2.1-2.1,2.8c-0.6,0.4-1.2,0.7-1.9,0.9
			c-0.3,0.1-0.7,0.1-1,0.1c0,0-0.1,0-0.1,0c-0.1-0.1,0-0.2-0.1-0.2c0-0.7,0.1-1.4,0.3-2.1c0.8-1.9,2.1-3.2,4.1-3.8
			C78.4,164.7,78.7,164.7,79.1,164.6z"/>
	</g>
</g>
</svg>
