<svg version="1.2" xmlns="http://www.w3.org/2000/svg" viewBox="0 0 373 363" width="33" height="32">
	<style>
		.s0 { fill: #242526 } 
	</style>
	<path class="s0" d="m153.87 227.56c-0.21-3-0.47-6-0.61-9-0.05-0.94-0.34-1.33-1.27-1.48q-0.41-0.08-0.82-0.17-0.4-0.09-0.8-0.2-0.41-0.11-0.8-0.24-0.4-0.13-0.79-0.27-0.18-0.09-0.38-0.1-0.21-0.02-0.4 0.04-0.19 0.07-0.35 0.19-0.15 0.13-0.25 0.31c-1.6 2.08-3.24 4.12-4.87 6.17-0.17 0.22-0.36 0.42-0.61 0.72l-5-2.87-5.12-2.95q1.2-2.76 2.35-5.45c0.45-1.05 0.9-2.09 1.3-3.16q0.03-0.1 0.04-0.2 0.01-0.1 0-0.2-0.01-0.1-0.05-0.2-0.03-0.09-0.09-0.18-1.6-1.73-3.31-3.36-0.11-0.05-0.23-0.08-0.12-0.02-0.24-0.02-0.12 0-0.24 0.02-0.12 0.03-0.23 0.08-4.16 1.76-8.35 3.57l-6.17-10.2 7.86-6c-0.46-1.53-0.88-3.07-1.4-4.57-0.08-0.24-0.52-0.46-0.82-0.5q-4.08-0.54-8.16-1c-0.33 0-0.66-0.11-1-0.18v-11.86c2.9-0.36 5.77-0.75 8.64-1.07 0.91-0.1 1.5-0.3 1.69-1.37q0.11-0.49 0.23-0.97 0.13-0.48 0.26-0.96 0.14-0.48 0.29-0.95 0.15-0.48 0.31-0.95l-7.76-5.71c2-3.36 3.94-6.73 5.94-10.17 2.27 0.9 4.54 1.61 6.64 2.68 1.9 1 3.22 1 4.71-0.79 1.49-1.79 1.71-1.67 0.79-3.92-0.92-2.25-1.82-4.43-2.75-6.69l10-5.66 4 5.11c0.55 0.71 1.11 1.4 1.62 2.14q0.07 0.13 0.18 0.22 0.12 0.09 0.26 0.14 0.14 0.04 0.28 0.02 0.15-0.01 0.28-0.08 1.86-0.57 3.75-1 0.18-0.02 0.34-0.11 0.15-0.09 0.27-0.23 0.11-0.14 0.17-0.31 0.05-0.17 0.04-0.35 0.3-4.01 0.63-8c0-0.31 0-0.61 0.06-1 0.24 0 0.45-0.07 0.66-0.07q18.87 0 37.74 0 0.24-0.01 0.47 0.03 0.24 0.05 0.46 0.14 0.22 0.09 0.42 0.22 0.2 0.14 0.36 0.31 5 5 10.14 9.87 0.1 0.09 0.22 0.17 0.12 0.07 0.24 0.13 0.13 0.05 0.27 0.08 0.13 0.03 0.27 0.04 10.41 0 20.81 0 0.17 0.03 0.33-0.01 0.17-0.04 0.31-0.14 0.14-0.1 0.23-0.24 0.1-0.14 0.13-0.31c0.94-2.28 3.33-3.62 5.77-3.22 2.43 0.4 4.28 2.42 4.44 4.89 0.16 2.46-1.39 4.71-3.76 5.43-2.36 0.72-4.91-0.29-6.14-2.43q-0.08-0.17-0.21-0.31-0.13-0.14-0.3-0.23-0.16-0.1-0.35-0.14-0.18-0.04-0.37-0.02-10.88 0-21.74 0-0.27 0.01-0.54-0.04-0.27-0.04-0.52-0.15-0.25-0.1-0.47-0.26-0.23-0.15-0.41-0.35-4.92-4.83-9.89-9.6-0.12-0.13-0.27-0.23-0.14-0.1-0.3-0.18-0.16-0.07-0.33-0.12-0.17-0.04-0.35-0.06-14.47 0-28.95 0h-1v6.38h1.15q10.17 0 20.35 0 0.24-0.01 0.47 0.03 0.24 0.05 0.46 0.14 0.21 0.09 0.41 0.22 0.2 0.14 0.36 0.31 5.35 5.31 10.77 10.55 0.12 0.11 0.26 0.2 0.14 0.09 0.29 0.15 0.15 0.07 0.31 0.1 0.17 0.03 0.33 0.04 24.47 0.06 48.93 0.07 0.16 0.01 0.32-0.04 0.16-0.04 0.3-0.14 0.13-0.09 0.23-0.22 0.1-0.13 0.15-0.29 0.33-0.73 0.87-1.32 0.54-0.6 1.23-1 0.69-0.4 1.47-0.58 0.78-0.17 1.58-0.1c1.07 0.07 2.09 0.46 2.93 1.12 0.84 0.66 1.46 1.56 1.79 2.58 0.32 1.02 0.33 2.11 0.03 3.13-0.31 1.03-0.92 1.94-1.75 2.61q-0.94 0.74-2.1 1.02-1.16 0.27-2.33 0.03-1.17-0.25-2.13-0.97-0.95-0.72-1.51-1.77-0.07-0.19-0.2-0.34-0.13-0.15-0.3-0.25-0.17-0.1-0.37-0.14-0.19-0.04-0.39-0.01h-49.76q-0.26 0.01-0.52-0.03-0.25-0.05-0.49-0.15-0.24-0.09-0.46-0.24-0.21-0.15-0.39-0.34c-3.32-3.32-6.68-6.59-10-9.91q-0.23-0.26-0.52-0.45-0.29-0.2-0.61-0.33-0.32-0.13-0.66-0.19-0.34-0.05-0.69-0.03c-6.26 0.07-12.52 0-18.78 0.05h-1.05v6.85h5.55q3.27 0 6.56 0 0.2 0.01 0.39 0.06 0.19 0.04 0.38 0.12 0.18 0.07 0.35 0.18 0.17 0.1 0.32 0.23c3.57 3.41 7.09 6.87 10.63 10.3q0.07 0.07 0.15 0.13 0.08 0.06 0.17 0.11 0.09 0.04 0.18 0.07 0.1 0.03 0.2 0.04 10.81 0 21.66 0 0.23-0.75 0.67-1.4 0.44-0.65 1.05-1.15 0.61-0.49 1.34-0.78 0.73-0.29 1.51-0.36c1.24-0.16 2.5 0.13 3.56 0.81 1.05 0.68 1.83 1.71 2.19 2.92 0.36 1.2 0.28 2.49-0.22 3.64-0.51 1.15-1.4 2.08-2.53 2.63q-0.88 0.46-1.87 0.57-0.99 0.11-1.95-0.16-0.96-0.26-1.75-0.86-0.8-0.59-1.32-1.44-0.14-0.3-0.37-0.54-0.23-0.24-0.53-0.4-0.29-0.15-0.62-0.21-0.33-0.05-0.66 0c-7 0-14.06 0-21.09 0q-0.23 0.01-0.45-0.03-0.23-0.04-0.44-0.12-0.21-0.09-0.39-0.22-0.19-0.13-0.34-0.3c-3.32-3.27-6.67-6.5-10-9.76q-0.16-0.16-0.34-0.29-0.19-0.12-0.4-0.21-0.2-0.08-0.42-0.12-0.23-0.04-0.45-0.04c-3.6-0.12-7.21-0.22-10.79-0.5q-2.68-0.27-5.35 0.1-2.67 0.37-5.18 1.35-2.51 0.98-4.72 2.52-2.21 1.55-4 3.56-1.44 1.5-2.58 3.24-1.14 1.75-1.94 3.67-0.79 1.93-1.21 3.97-0.42 2.04-0.45 4.12c-0.05 2.85 0.42 5.69 1.38 8.38 0.96 2.69 2.39 5.18 4.24 7.36 1.84 2.18 4.06 4.01 6.55 5.4 2.5 1.39 5.22 2.32 8.04 2.75q0.66 0.07 1.33 0.12 0.67 0.05 1.34 0.07 0.66 0.02 1.33 0.02 0.67 0 1.34-0.03c3.48 0 7-0.13 10.44-0.25q0.19-0.01 0.37-0.05 0.18-0.04 0.35-0.11 0.17-0.07 0.33-0.16 0.16-0.1 0.3-0.22 5.69-5.49 11.31-11 0.16-0.17 0.34-0.29 0.19-0.13 0.4-0.22 0.21-0.08 0.44-0.12 0.22-0.03 0.45-0.02c7 0 13.94 0 20.91 0q0.19 0.03 0.37-0.01 0.19-0.04 0.35-0.13 0.16-0.1 0.28-0.25 0.12-0.15 0.18-0.33c0.55-1.09 1.45-1.95 2.55-2.46 1.11-0.5 2.36-0.61 3.53-0.31 1.18 0.3 2.22 0.99 2.95 1.97 0.73 0.97 1.1 2.16 1.06 3.38q-0.04 0.91-0.39 1.76-0.34 0.84-0.94 1.52-0.61 0.68-1.4 1.13-0.8 0.44-1.7 0.59-0.86 0.17-1.72 0.06-0.87-0.12-1.65-0.52-0.78-0.4-1.39-1.03-0.6-0.63-0.97-1.42-0.05-0.15-0.15-0.27-0.11-0.13-0.24-0.21-0.14-0.08-0.3-0.11-0.15-0.03-0.31-0.01-9.99 0-20 0-0.16 0.01-0.33 0.05-0.16 0.04-0.31 0.1-0.15 0.07-0.28 0.16-0.14 0.09-0.26 0.21-5.64 5.47-11.21 11-0.16 0.17-0.36 0.31-0.19 0.13-0.41 0.23-0.22 0.09-0.46 0.13-0.23 0.04-0.47 0.03c-3.61 0-7.21 0-10.82 0.07h-1v7q0.5 0 0.94 0 9.8 0 19.61 0 0.18-0.01 0.35-0.05 0.17-0.03 0.33-0.1 0.16-0.07 0.31-0.17 0.15-0.09 0.28-0.21 5.61-5.49 11.17-11.06 0.17-0.19 0.39-0.35 0.21-0.15 0.45-0.25 0.24-0.1 0.49-0.14 0.26-0.05 0.52-0.04 24.65 0 49.3 0c0.56 0 0.92 0 1.2-0.67 0.51-1.06 1.35-1.93 2.4-2.46 1.05-0.53 2.24-0.71 3.4-0.49 1.16 0.21 2.21 0.8 3 1.67 0.79 0.88 1.27 1.99 1.36 3.16 0.08 1.19-0.24 2.36-0.91 3.35-0.66 0.98-1.64 1.71-2.77 2.08-1.13 0.37-2.35 0.34-3.47-0.06-1.11-0.41-2.06-1.18-2.69-2.19q-0.14-0.27-0.35-0.49-0.21-0.22-0.48-0.36-0.27-0.15-0.57-0.2-0.3-0.06-0.6-0.03-23.68 0-47.36 0-0.23-0.01-0.45 0.02-0.22 0.04-0.43 0.12-0.21 0.09-0.4 0.22-0.19 0.12-0.34 0.29c-3.7 3.71-7.43 7.39-11.13 11.11q-0.15 0.16-0.32 0.28-0.17 0.12-0.37 0.2-0.2 0.09-0.41 0.13-0.21 0.04-0.42 0.03-10.37 0-20.72 0h-1.26v6.9c0.35 0 0.7 0.05 1.06 0.05q14.05 0.02 28.12-0.06 0.21-0.01 0.41-0.05 0.21-0.05 0.4-0.13 0.19-0.08 0.37-0.19 0.18-0.11 0.33-0.25 5.5-5.35 10.92-10.79 0.18-0.2 0.4-0.36 0.22-0.15 0.48-0.26 0.25-0.1 0.51-0.15 0.27-0.04 0.54-0.03c7 0.06 14 0.06 21 0.1q0.22 0.03 0.44-0.02 0.22-0.05 0.42-0.16 0.19-0.12 0.33-0.29 0.15-0.17 0.23-0.38 0.39-0.79 1.01-1.4 0.62-0.62 1.41-0.99 0.8-0.37 1.67-0.46 0.87-0.09 1.72 0.11c1.17 0.24 2.22 0.87 2.98 1.79 0.77 0.92 1.2 2.06 1.24 3.25 0.03 1.2-0.34 2.37-1.06 3.32-0.71 0.96-1.73 1.64-2.88 1.95q-0.85 0.25-1.74 0.21-0.88-0.05-1.7-0.39-0.82-0.34-1.48-0.93-0.66-0.6-1.08-1.38-0.11-0.25-0.29-0.46-0.18-0.2-0.42-0.34-0.24-0.13-0.51-0.19-0.27-0.05-0.54-0.01-9.81-0.01-19.61 0.06-0.19 0.01-0.37 0.05-0.18 0.04-0.35 0.12-0.17 0.07-0.33 0.17-0.15 0.1-0.29 0.23c-3.74 3.64-7.42 7.32-11.16 11q-0.15 0.14-0.33 0.26-0.17 0.11-0.36 0.2-0.19 0.08-0.4 0.13-0.2 0.05-0.41 0.06-18.51 0-37 0c-0.3 0.08-0.63 0.05-1.03 0.03zm80.2-81.06c-0.02-0.56-0.26-1.08-0.66-1.47-0.4-0.39-0.93-0.61-1.48-0.62-0.56-0.02-1.1 0.19-1.51 0.56-0.42 0.37-0.67 0.89-0.72 1.44q0.01 0.43 0.18 0.83 0.17 0.4 0.46 0.71 0.3 0.31 0.69 0.5 0.39 0.18 0.82 0.22 0.43-0.02 0.83-0.19 0.39-0.17 0.7-0.47 0.31-0.3 0.49-0.69 0.17-0.39 0.2-0.82zm17.34 58.86q0.42-0.01 0.8-0.17 0.38-0.17 0.68-0.46 0.3-0.29 0.47-0.67 0.17-0.38 0.19-0.8-0.02-0.43-0.2-0.82-0.17-0.39-0.48-0.69-0.31-0.3-0.7-0.47-0.4-0.16-0.83-0.17-0.4 0-0.77 0.15-0.37 0.16-0.66 0.43-0.29 0.28-0.45 0.65-0.17 0.37-0.18 0.77-0.01 0.44 0.14 0.84 0.16 0.41 0.46 0.73 0.3 0.31 0.7 0.49 0.39 0.18 0.83 0.19zm-40.63-38.36c-0.01 0.87 0.5 1.65 1.3 1.99 0.8 0.34 1.72 0.16 2.33-0.45 0.62-0.61 0.8-1.53 0.46-2.33-0.33-0.8-1.11-1.32-1.98-1.31q-0.42 0-0.81 0.16-0.38 0.16-0.68 0.45-0.3 0.3-0.46 0.68-0.16 0.39-0.16 0.81zm2.05 23.81q-0.42 0.01-0.8 0.18-0.39 0.17-0.68 0.46-0.29 0.31-0.45 0.69-0.15 0.39-0.15 0.81 0.03 0.42 0.2 0.79 0.17 0.38 0.47 0.67 0.29 0.3 0.67 0.46 0.38 0.17 0.8 0.19 0.42-0.03 0.8-0.2 0.38-0.17 0.67-0.46 0.3-0.29 0.47-0.67 0.17-0.38 0.2-0.8-0.01-0.43-0.18-0.82-0.17-0.4-0.48-0.69-0.31-0.3-0.71-0.45-0.4-0.15-0.83-0.14zm18.91 25.06q0.42 0.03 0.81-0.1 0.4-0.14 0.72-0.41 0.32-0.27 0.51-0.64 0.19-0.37 0.23-0.79 0.01-0.44-0.15-0.86-0.16-0.41-0.46-0.73-0.3-0.33-0.7-0.52-0.4-0.18-0.84-0.21c-0.56-0.02-1.11 0.19-1.52 0.58-0.41 0.39-0.65 0.93-0.67 1.49-0.02 0.56 0.19 1.11 0.58 1.52 0.39 0.41 0.93 0.65 1.49 0.67zm21.51-58.55q0-0.42-0.16-0.81-0.16-0.39-0.46-0.69-0.29-0.3-0.67-0.46-0.39-0.17-0.81-0.18c-0.56 0-1.1 0.22-1.5 0.62-0.4 0.4-0.62 0.94-0.62 1.5 0 0.56 0.22 1.1 0.62 1.5 0.4 0.4 0.94 0.62 1.5 0.62q0.41-0.01 0.79-0.17 0.38-0.16 0.68-0.45 0.29-0.29 0.45-0.67 0.17-0.38 0.18-0.79z"/>
	<path class="s0" d="m171.41 179.64h1.65q31.13 0 62.25 0 0.18 0.03 0.35-0.01 0.17-0.04 0.32-0.13 0.16-0.09 0.27-0.23 0.1-0.14 0.16-0.31 0.4-0.86 1.07-1.53 0.67-0.66 1.54-1.04 0.87-0.38 1.81-0.44 0.95-0.05 1.85 0.24c1.23 0.36 2.29 1.14 2.99 2.22 0.7 1.08 0.98 2.37 0.81 3.64-0.18 1.27-0.81 2.43-1.77 3.27-0.97 0.85-2.21 1.31-3.49 1.32q-0.73 0.02-1.45-0.16-0.71-0.18-1.34-0.56-0.63-0.38-1.13-0.92-0.5-0.54-0.82-1.2-0.06-0.15-0.17-0.28-0.1-0.13-0.25-0.21-0.14-0.09-0.3-0.12-0.16-0.04-0.33-0.02-31.63 0-63.27 0c-0.68 0-0.93 0.19-1.08 0.88-0.71 2.97-2.45 5.6-4.91 7.41-2.47 1.81-5.49 2.69-8.54 2.48-3.05-0.21-5.93-1.5-8.12-3.63-2.19-2.14-3.55-4.98-3.84-8.02-0.25-3.28 0.77-6.53 2.84-9.08 2.07-2.56 5.03-4.22 8.29-4.67 3.26-0.44 6.56 0.38 9.24 2.29 2.67 1.91 4.51 4.77 5.15 8 0.05 0.25 0.13 0.48 0.22 0.81zm-8.35 1.62q0.03-0.89-0.28-1.72-0.32-0.83-0.93-1.47-0.61-0.64-1.43-1-0.81-0.35-1.7-0.36-0.9-0.02-1.74 0.29-0.84 0.32-1.5 0.93-0.66 0.61-1.05 1.42-0.38 0.81-0.43 1.71 0.01 0.91 0.35 1.75 0.34 0.84 0.97 1.5 0.63 0.65 1.46 1.03 0.82 0.38 1.73 0.43 0.9 0 1.73-0.34 0.84-0.34 1.48-0.98 0.63-0.63 0.98-1.46 0.35-0.83 0.36-1.73zm76 0q-0.01 0.41 0.13 0.8 0.15 0.39 0.43 0.7 0.28 0.31 0.65 0.49 0.38 0.17 0.79 0.2c0.59 0.05 1.16-0.15 1.6-0.54 0.43-0.4 0.68-0.96 0.69-1.54 0.01-0.59-0.22-1.15-0.65-1.56-0.42-0.41-0.99-0.62-1.58-0.59q-0.41 0.01-0.78 0.17-0.37 0.16-0.66 0.45-0.29 0.28-0.46 0.65-0.16 0.37-0.18 0.78z"/>
</svg>